<svg width="624" height="150" viewBox="0 0 624 150" fill="none" xmlns="http://www.w3.org/2000/svg">
<path d="M10.9205 120V29.8182H64.9943V39.5057H21.8409V69.9773H60.9432V79.6648H21.8409V120H10.9205ZM92.6808 29.8182V120H82.2887V29.8182H92.6808ZM139.192 121.409C133.086 121.409 127.728 119.956 123.119 117.05C118.54 114.143 114.958 110.078 112.375 104.852C109.821 99.6269 108.544 93.5208 108.544 86.5341C108.544 79.4886 109.821 73.3385 112.375 68.0838C114.958 62.8291 118.54 58.7486 123.119 55.8423C127.728 52.9361 133.086 51.483 139.192 51.483C145.298 51.483 150.641 52.9361 155.22 55.8423C159.829 58.7486 163.411 62.8291 165.964 68.0838C168.548 73.3385 169.839 79.4886 169.839 86.5341C169.839 93.5208 168.548 99.6269 165.964 104.852C163.411 110.078 159.829 114.143 155.22 117.05C150.641 119.956 145.298 121.409 139.192 121.409ZM139.192 112.074C143.83 112.074 147.646 110.885 150.641 108.507C153.635 106.129 155.851 103.003 157.29 99.1278C158.728 95.2528 159.447 91.0549 159.447 86.5341C159.447 82.0133 158.728 77.8007 157.29 73.8963C155.851 69.9919 153.635 66.8362 150.641 64.429C147.646 62.0218 143.83 60.8182 139.192 60.8182C134.554 60.8182 130.737 62.0218 127.743 64.429C124.749 66.8362 122.532 69.9919 121.094 73.8963C119.655 77.8007 118.936 82.0133 118.936 86.5341C118.936 91.0549 119.655 95.2528 121.094 99.1278C122.532 103.003 124.749 106.129 127.743 108.507C130.737 110.885 134.554 112.074 139.192 112.074ZM353.385 58C352.416 55.035 351.139 52.3783 349.554 50.0298C347.998 47.652 346.134 45.6264 343.961 43.9531C341.818 42.2798 339.382 41.0028 336.652 40.1222C333.922 39.2415 330.927 38.8011 327.669 38.8011C322.326 38.8011 317.467 40.1809 313.093 42.9403C308.719 45.6998 305.241 49.7656 302.657 55.1378C300.074 60.5099 298.782 67.1004 298.782 74.9091C298.782 82.7178 300.089 89.3082 302.701 94.6804C305.314 100.053 308.851 104.118 313.314 106.878C317.776 109.637 322.796 111.017 328.373 111.017C333.54 111.017 338.09 109.916 342.024 107.714C345.987 105.483 349.069 102.342 351.271 98.2912C353.502 94.2107 354.618 89.411 354.618 83.892L357.964 84.5966H330.839V74.9091H365.186V84.5966C365.186 92.0237 363.601 98.482 360.43 103.972C357.289 109.461 352.944 113.718 347.396 116.741C341.877 119.736 335.536 121.233 328.373 121.233C320.388 121.233 313.372 119.354 307.325 115.597C301.307 111.839 296.61 106.496 293.234 99.5682C289.887 92.6402 288.214 84.4205 288.214 74.9091C288.214 67.7756 289.168 61.3613 291.076 55.6662C293.014 49.9418 295.744 45.0687 299.267 41.0469C302.789 37.0251 306.958 33.9427 311.772 31.7997C316.587 29.6567 321.886 28.5852 327.669 28.5852C332.424 28.5852 336.857 29.3044 340.967 30.7429C345.106 32.152 348.79 34.1629 352.02 36.7756C355.278 39.3589 357.993 42.456 360.166 46.0668C362.338 49.6482 363.835 53.6259 364.657 58H353.385ZM425.105 92.3466V52.3636H435.497V120H425.105V108.551H424.401C422.815 111.986 420.349 114.907 417.003 117.314C413.656 119.692 409.429 120.881 404.321 120.881C400.094 120.881 396.336 119.956 393.048 118.107C389.76 116.228 387.177 113.41 385.298 109.652C383.42 105.865 382.48 101.095 382.48 95.3409V52.3636H392.872V94.6364C392.872 99.5682 394.252 103.502 397.011 106.438C399.8 109.373 403.352 110.841 407.668 110.841C410.251 110.841 412.878 110.18 415.55 108.859C418.25 107.538 420.511 105.513 422.331 102.783C424.18 100.053 425.105 96.5739 425.105 92.3466ZM454.531 120V52.3636H464.923V120H454.531ZM459.815 41.0909C457.789 41.0909 456.043 40.401 454.575 39.0213C453.136 37.6416 452.417 35.983 452.417 34.0455C452.417 32.108 453.136 30.4493 454.575 29.0696C456.043 27.6899 457.789 27 459.815 27C461.841 27 463.573 27.6899 465.011 29.0696C466.479 30.4493 467.213 32.108 467.213 34.0455C467.213 35.983 466.479 37.6416 465.011 39.0213C463.573 40.401 461.841 41.0909 459.815 41.0909ZM509.496 121.409C503.86 121.409 498.884 119.985 494.569 117.138C490.254 114.261 486.878 110.21 484.441 104.984C482.004 99.7296 480.786 93.5208 480.786 86.358C480.786 79.2538 482.004 73.089 484.441 67.8636C486.878 62.6383 490.268 58.6018 494.613 55.7543C498.958 52.9067 503.978 51.483 509.673 51.483C514.076 51.483 517.555 52.2169 520.109 53.6847C522.692 55.1231 524.659 56.767 526.009 58.6165C527.389 60.4366 528.46 61.9337 529.224 63.108H530.104V29.8182H540.496V120H530.457V109.608H529.224C528.46 110.841 527.374 112.397 525.965 114.276C524.556 116.125 522.545 117.784 519.933 119.251C517.32 120.69 513.841 121.409 509.496 121.409ZM510.906 112.074C515.074 112.074 518.597 110.988 521.474 108.815C524.351 106.614 526.538 103.575 528.035 99.7003C529.532 95.7959 530.281 91.2898 530.281 86.1818C530.281 81.1326 529.547 76.7145 528.079 72.9276C526.611 69.1113 524.439 66.1463 521.562 64.0327C518.685 61.8897 515.133 60.8182 510.906 60.8182C506.502 60.8182 502.833 61.9484 499.897 64.2088C496.991 66.4399 494.804 69.4782 493.336 73.3239C491.897 77.1402 491.178 81.4261 491.178 86.1818C491.178 90.9962 491.912 95.3703 493.38 99.304C494.877 103.208 497.079 106.32 499.985 108.639C502.921 110.929 506.561 112.074 510.906 112.074ZM589.33 121.409C582.813 121.409 577.192 119.971 572.465 117.094C567.768 114.188 564.143 110.136 561.589 104.94C559.064 99.715 557.802 93.6383 557.802 86.7102C557.802 79.7822 559.064 73.6761 561.589 68.392C564.143 63.0786 567.695 58.9394 572.245 55.9744C576.825 52.9801 582.167 51.483 588.273 51.483C591.796 51.483 595.275 52.0701 598.71 53.2443C602.144 54.4186 605.271 56.3267 608.089 58.9688C610.907 61.5814 613.153 65.0455 614.826 69.3608C616.499 73.6761 617.336 78.9896 617.336 85.3011V89.7045H565.2V80.7216H606.768C606.768 76.9053 606.005 73.5 604.478 70.5057C602.981 67.5114 600.838 65.1482 598.049 63.4162C595.29 61.6842 592.031 60.8182 588.273 60.8182C584.134 60.8182 580.553 61.8456 577.529 63.9006C574.535 65.9261 572.23 68.5682 570.616 71.8267C569.001 75.0852 568.194 78.5786 568.194 82.3068V88.2955C568.194 93.4034 569.075 97.7334 570.836 101.286C572.627 104.808 575.107 107.494 578.278 109.344C581.448 111.164 585.132 112.074 589.33 112.074C592.06 112.074 594.526 111.692 596.728 110.929C598.959 110.136 600.882 108.962 602.496 107.406C604.111 105.821 605.359 103.854 606.239 101.506L616.279 104.324C615.222 107.729 613.446 110.723 610.951 113.307C608.456 115.861 605.373 117.857 601.704 119.295C598.034 120.705 593.91 121.409 589.33 121.409Z" fill="black"/>
<path d="M180 54.0099C180 54.0099 187.065 116.676 199.075 118.941C208.409 120.701 214.757 82.7839 217.121 65.8012C217.409 63.7332 220.342 63.3763 221.104 65.3201L238.099 108.675C238.774 110.398 241.224 110.359 241.845 108.616L264.778 44.1948" stroke="#3B82F6" stroke-width="9" stroke-linecap="round"/>
<path d="M204.222 38.8151C204.222 38.8151 211.287 101.481 223.297 103.746C232.632 105.506 238.979 67.5891 241.344 50.6064C241.632 48.5384 244.564 48.1814 245.326 50.1253L262.321 93.4806C262.996 95.2029 265.447 95.1642 266.067 93.4214L289 29" stroke="#3B82F6" stroke-linecap="round"/>
<path d="M185.622 50.4831C185.622 50.4831 192.687 113.149 204.697 115.414C216.707 117.679 223.772 54.2581 223.772 54.2581L245.673 110.129L270.4 40.668" stroke="#3B82F6" stroke-width="7.14316"/>
<path d="M190.61 47.3542C190.61 47.3542 197.675 110.02 209.685 112.285C221.696 114.55 228.76 51.1292 228.76 51.1292L250.661 107L275.388 37.5391" stroke="#3B82F6" stroke-width="5.49573"/>
<path d="M194.964 44.6227C194.964 44.6227 202.029 107.289 214.039 109.554C226.05 111.819 233.114 48.3978 233.114 48.3978L255.015 104.268L279.742 34.8076" stroke="#3B82F6" stroke-width="4.05769"/>
<path d="M198.684 42.2892C198.684 42.2892 205.749 104.955 217.759 107.22C229.769 109.485 236.834 46.0643 236.834 46.0643L258.735 101.935L283.462 32.4741" stroke="#3B82F6" stroke-width="2.82906"/>
<path d="M201.77 40.3532C201.77 40.3532 208.835 103.019 220.845 105.284C232.855 107.549 239.92 44.1283 239.92 44.1283L261.821 99.999L286.548 30.5381" stroke="#3B82F6" stroke-width="1.80983"/>
<path d="M180 54.0099C180 54.0099 187.065 116.676 199.075 118.941C208.409 120.701 214.757 82.7839 217.121 65.8012C217.409 63.7332 220.342 63.3763 221.104 65.3201L238.099 108.675C238.774 110.398 241.224 110.359 241.845 108.616L264.778 44.1948" stroke="#3B82F6" stroke-width="9" stroke-linecap="round"/>
<path d="M204.222 38.8151C204.222 38.8151 211.287 101.481 223.297 103.746C232.632 105.506 238.979 67.5891 241.344 50.6064C241.632 48.5384 244.564 48.1814 245.326 50.1253L262.321 93.4806C262.996 95.2029 265.447 95.1642 266.067 93.4214L289 29" stroke="#3B82F6" stroke-linecap="round"/>
<path d="M185.622 50.4831C185.622 50.4831 192.687 113.149 204.697 115.414C216.707 117.679 223.772 54.2581 223.772 54.2581L245.673 110.129L270.4 40.668" stroke="#3B82F6" stroke-width="7.14316"/>
<path d="M190.61 47.3542C190.61 47.3542 197.675 110.02 209.685 112.285C221.696 114.55 228.76 51.1292 228.76 51.1292L250.661 107L275.388 37.5391" stroke="#3B82F6" stroke-width="5.49573"/>
<path d="M194.964 44.6227C194.964 44.6227 202.029 107.289 214.039 109.554C226.05 111.819 233.114 48.3978 233.114 48.3978L255.015 104.268L279.742 34.8076" stroke="#3B82F6" stroke-width="4.05769"/>
<path d="M198.684 42.2892C198.684 42.2892 205.749 104.955 217.759 107.22C229.769 109.485 236.834 46.0643 236.834 46.0643L258.735 101.935L283.462 32.4741" stroke="#3B82F6" stroke-width="2.82906"/>
<path d="M201.77 40.3532C201.77 40.3532 208.835 103.019 220.845 105.284C232.855 107.549 239.92 44.1283 239.92 44.1283L261.821 99.999L286.548 30.5381" stroke="#3B82F6" stroke-width="1.80983"/>
</svg>
